# author: headus 3D tools
#  using: ply2obj v1.10
#   from: uvlayout v2.10.01
# 22 vertices
v 0.7240000 -1.4600000 0.5260000
v -0.2759850 -1.4600000 0.8509199
v -0.8940250 -1.4600000 0.0002800
v -0.2759850 -1.4600000 -0.8503601
v 0.7240000 -1.4600000 -0.5254402
v 0.2767851 1.4608882 0.8509199
v -0.7232001 1.4608882 0.5260000
v -0.7232001 1.4608882 -0.5254402
v 0.2767851 1.4608882 -0.8503601
v 0.8948250 1.4608882 0.0002800
v -0.2406280 -1.5768550 0.7420990
v 0.0004001 -1.9992800 0.0002800
v 0.6314311 -1.5768550 0.4587460
v 0.6314311 -1.5768550 -0.4581860
v -0.7796023 -1.5768559 0.0002800
v -0.2406280 -1.5768550 -0.7415391
v 0.7804020 1.5777442 0.0002800
v 0.2414281 1.5777432 0.7420990
v -0.6306310 1.5777432 0.4587460
v -0.6306310 1.5777432 -0.4581860
v 0.2414281 1.5777432 -0.7415391
v 0.0004001 2.0001684 0.0002800
# 30 normals
vn -0.783831 0.620888 0.000000
vn -0.634072 -0.620888 -0.460691
vn -0.242172 0.620888 0.745498
vn 0.634072 0.620888 -0.460691
vn 0.783831 -0.620888 0.000000
vn 0.998230 -0.058323 0.000000
vn 0.308491 -0.058323 0.949338
vn -0.807514 -0.058323 0.586736
vn -0.807514 -0.058323 -0.586736
vn 0.308491 -0.058323 -0.949338
vn 0.807514 0.058323 0.586736
vn -0.308491 0.058323 0.949338
vn -0.998230 0.058323 0.000000
vn -0.308491 0.058323 -0.949338
vn 0.807514 0.058323 -0.586736
vn 0.634072 0.620888 0.460691
vn -0.242172 0.620888 -0.745498
vn -0.634072 -0.620888 0.460691
vn 0.242172 -0.620888 -0.745498
vn 0.242172 -0.620888 0.745498
vn 0.171855 -0.830922 0.529085
vn 0.556278 -0.830922 0.000000
vn -0.449979 -0.830922 0.326985
vn -0.449979 -0.830922 -0.326985
vn 0.171855 -0.830922 -0.529085
vn 0.449979 0.830922 0.326985
vn -0.171855 0.830922 0.529085
vn -0.556278 0.830922 0.000000
vn -0.171855 0.830922 -0.529085
vn 0.449979 0.830922 -0.326985
# 34 uv coords
vt 0.905954 0.260769
vt 0.784751 0.172708
vt 0.905956 0.084651
vt 0.703898 0.497418
vt 0.738457 0.030224
vt 0.807425 0.354938
vt 0.853715 0.497423
vt 0.634934 0.172707
vt 0.974922 0.409368
vt 0.974917 0.585487
vt 0.807415 0.639905
vt 0.738454 0.315191
vt 0.678161 0.497417
vt 0.799473 0.330460
vt 0.995745 0.394242
vt 0.799461 0.664382
vt 0.995738 0.600615
vt 0.926779 0.069523
vt 0.926775 0.275897
vt 0.730501 0.339669
vt 0.730504 0.005747
vt 0.609196 0.172707
vt 0.126880 0.598213
vt 0.086491 0.406162
vt 0.641038 0.389778
vt 0.681424 0.581803
vt 0.600674 0.197767
vt 0.167266 0.790241
vt 0.046122 0.214136
vt 0.721814 0.773829
vt 0.560294 0.005747
vt 0.207663 0.982271
vt 0.005747 0.022087
vt 0.762212 0.965854
# 30 polygons
usemtl None
s off
f 8/15/1 7/17/1 19/10/1 20/9/1
f 3/22/2 4/21/2 16/5/2 15/8/2
f 7/17/3 6/16/3 18/11/3 19/10/3
f 10/13/4 9/14/4 21/6/4 17/4/4
f 5/18/5 1/19/5 13/1/5 14/3/5
f 1/30/6 5/34/6 10/32/6
f 2/26/7 1/30/7 6/28/7
f 3/25/8 2/26/8 7/23/8
f 4/27/9 3/25/9 8/24/9
f 5/31/10 4/27/10 9/29/10
f 1/30/11 10/32/11 6/28/11
f 2/26/12 6/28/12 7/23/12
f 3/25/13 7/23/13 8/24/13
f 4/27/14 8/24/14 9/29/14
f 5/31/15 9/29/15 10/33/15
f 6/16/16 10/13/16 17/4/16 18/11/16
f 9/14/17 8/15/17 20/9/17 21/6/17
f 2/20/18 3/22/18 15/8/18 11/12/18
f 4/21/19 5/18/19 14/3/19 16/5/19
f 1/19/20 2/20/20 11/12/20 13/1/20
f 12/2/21 13/1/21 11/12/21
f 13/1/22 12/2/22 14/3/22
f 12/2/23 11/12/23 15/8/23
f 12/2/24 15/8/24 16/5/24
f 12/2/25 16/5/25 14/3/25
f 18/11/26 17/4/26 22/7/26
f 19/10/27 18/11/27 22/7/27
f 20/9/28 19/10/28 22/7/28
f 21/6/29 20/9/29 22/7/29
f 17/4/30 21/6/30 22/7/30
# h3dt: 22 34 30 30
